<svg xmlns="http://www.w3.org/2000/svg" width="58.285" height="58.285" viewBox="0 0 58.285 58.285">
  <g id="Group_94" data-name="Group 94" transform="translate(763 350.485)">
    <g id="Group_92" data-name="Group 92" transform="translate(-740.156 -338.772)">
      <path id="Path_33" data-name="Path 33" d="M-1.643,0l-6.3,10.161,4.566,7.368,1.731-2.8-2.835-4.571,2.836-4.573,2.836,4.573-2.836,4.571,1.731,2.8,4.567-7.368Z" transform="translate(7.941)" fill="#fff"/>
    </g>
    <g id="Group_93" data-name="Group 93" transform="translate(-763 -350.485)">
      <path id="Path_34" data-name="Path 34" d="M-12.745-11.7l-9.691-15.644,5.034-8.162h-3.44L-25.9-27.349l11.1,17.92a25.525,25.525,0,0,1-3.213,2.67L-30.745-27.347l-1.731-2.8-1.732,2.8L-46.942-6.76a25.525,25.525,0,0,1-3.213-2.67l11.1-17.92-5.056-8.162h-3.441l5.034,8.162L-52.208-11.7a25.135,25.135,0,0,1-5.526-15.742A25.286,25.286,0,0,1-32.477-52.7,25.286,25.286,0,0,1-7.219-27.447,25.131,25.131,0,0,1-12.745-11.7M-32.477-2.188a25.1,25.1,0,0,1-11.964-3.02l11.962-19.348,0,0,0,0L-20.513-5.208a25.1,25.1,0,0,1-11.964,3.02m0-54.4A29.175,29.175,0,0,0-61.619-27.447,29.175,29.175,0,0,0-32.477,1.7,29.176,29.176,0,0,0-3.334-27.447,29.176,29.176,0,0,0-32.477-56.589" transform="translate(61.619 56.589)" fill="#fff"/>
    </g>
  </g>
</svg>
