<svg xmlns="http://www.w3.org/2000/svg" width="255.061" height="195.353" viewBox="0 0 255.061 195.353">
  <g id="enpty" transform="translate(-147.292 -50.579)">
    <g id="Background_Complete" transform="translate(162.648 53.059)">
      <g id="Group_96" data-name="Group 96" transform="translate(169.335 21.597)">
        <path id="Path_87" data-name="Path 87" d="M604.814,124.511l-4.6,22.292-2.961-2.888-5.042,3.594-3.851-4.782-8.642,6.282-7.38-12.348-8.237,4.824-3.265-4.5-10.458,5.892-3.147-6.736,7.33-35.5,39.3,8.114Z" transform="translate(-539.548 -100.634)" fill="#ebebeb"/>
        <path id="Path_88" data-name="Path 88" d="M641.287,117.5l10.957,15.761-13.63-2.814Z" transform="translate(-586.977 -109.389)" fill="#dbdbdb"/>
        <path id="Path_89" data-name="Path 89" d="M590.945,194.373l-6.751,32.706-52.932-10.926,6.7-32.445,3.147,6.735,10.458-5.892,3.265,4.5,8.237-4.824,7.38,12.347,8.642-6.282,3.851,4.782,5.042-3.594Z" transform="translate(-531.262 -143.749)" fill="#ebebeb"/>
      </g>
      <g id="Group_98" data-name="Group 98" transform="translate(95.026 0)">
        <path id="Path_90" data-name="Path 90" d="M435,124.123l-53.945,3.338-4.285-69.248,40.054-2.479,14.708,12.335Z" transform="translate(-376.774 -55.734)" fill="#ebebeb"/>
        <path id="Path_91" data-name="Path 91" d="M460.045,55.734l14.708,12.335-13.891.86Z" transform="translate(-419.991 -55.734)" fill="#dbdbdb"/>
        <g id="Group_97" data-name="Group 97" transform="translate(18.135 16.583)">
          <path id="Path_92" data-name="Path 92" d="M421.441,120.218l-.209-1.562c-.544-3.238.342-6.858,3.156-10.647,2.536-3.35,3.913-5.787,3.76-8.5-.172-3.077-2.218-5.02-6.022-4.868a10.741,10.741,0,0,0-5.989,2.212l-1.661-3.72a15.848,15.848,0,0,1,8.492-2.9c6.938-.389,10.315,3.72,10.572,8.3.23,4.1-1.9,7.187-4.6,10.788-2.479,3.286-3.3,5.995-2.942,9.061l.148,1.565Zm-.854,8.521a3.573,3.573,0,0,1,3.406-4,3.781,3.781,0,1,1-3.406,4Z" transform="translate(-414.477 -90.21)" fill="#dbdbdb"/>
        </g>
      </g>
      <g id="Group_99" data-name="Group 99" transform="translate(0 31.469)">
        <path id="Path_93" data-name="Path 93" d="M129.286,125.458,123.857,123l-.753,1.662a1.417,1.417,0,0,1-1.237.824,8.358,8.358,0,0,0-.887.087,1.416,1.416,0,0,1-1.371-.567l-1.063-1.483-4.847,3.473,1.063,1.483a1.417,1.417,0,0,1,.1,1.481,8.259,8.259,0,0,0-.368.812,1.417,1.417,0,0,1-1.178.906l-1.816.178.585,5.932,1.823-.181a1.418,1.418,0,0,1,1.33.665q.118.184.246.363t.265.35a1.414,1.414,0,0,1,.2,1.466l-.758,1.674,5.429,2.462.756-1.666a1.418,1.418,0,0,1,1.239-.823,8.294,8.294,0,0,0,.884-.086,1.416,1.416,0,0,1,1.369.568l1.063,1.484,4.847-3.473-1.063-1.484a1.416,1.416,0,0,1-.1-1.479,8.186,8.186,0,0,0,.365-.81,1.417,1.417,0,0,1,1.178-.908l1.82-.18-.585-5.932-1.821.18a1.415,1.415,0,0,1-1.326-.663q-.119-.185-.248-.366t-.265-.35a1.42,1.42,0,0,1-.2-1.473Zm-3.079,5.488a4.883,4.883,0,1,1-6.812-1.129A4.879,4.879,0,0,1,126.207,130.946Z" transform="translate(-111.496 -107.201)" fill="#ebebeb"/>
        <path id="Path_94" data-name="Path 94" d="M652.465,291.712l-3.617,2.087.64,1.107a.992.992,0,0,1-.035,1.041,5.836,5.836,0,0,0-.313.541.992.992,0,0,1-.882.549h-1.279v4.177h1.279a.992.992,0,0,1,.882.549,5.84,5.84,0,0,0,.313.541.991.991,0,0,1,.035,1.041l-.64,1.107,3.617,2.087.64-1.112a.993.993,0,0,1,.921-.486q.153.008.307.008t.307-.008a.989.989,0,0,1,.917.483l.644,1.115,3.617-2.087-.64-1.11a.991.991,0,0,1,.037-1.041,5.788,5.788,0,0,0,.312-.538.992.992,0,0,1,.882-.548h1.279v-4.177h-1.279a.992.992,0,0,1-.882-.548,5.787,5.787,0,0,0-.312-.538.993.993,0,0,1-.037-1.041l.64-1.11-3.617-2.087-.641,1.111a.992.992,0,0,1-.919.484c-.1-.005-.205-.008-.31-.008s-.205,0-.307.008a1,1,0,0,1-.922-.486Zm1.869,3.993a3.421,3.421,0,1,1-3.422,3.419A3.418,3.418,0,0,1,654.334,295.7Z" transform="translate(-421.983 -209.674)" fill="#ebebeb"/>
        <path id="Path_95" data-name="Path 95" d="M166.175,90.641l-3.317,2.536.777,1.015a.993.993,0,0,1,.1,1.037,5.66,5.66,0,0,0-.24.577.992.992,0,0,1-.8.658l-1.267.165.539,4.142,1.267-.165a.991.991,0,0,1,.946.43,5.7,5.7,0,0,0,.38.5.993.993,0,0,1,.169,1.027l-.491,1.18,3.856,1.6.491-1.185a1,1,0,0,1,.851-.6q.153-.012.306-.032c.1-.013.2-.029.3-.048a.99.99,0,0,1,.972.361l.783,1.023,3.318-2.536-.778-1.018a.992.992,0,0,1-.1-1.037,5.776,5.776,0,0,0,.24-.574.993.993,0,0,1,.8-.658l1.268-.165-.539-4.142-1.268.165a.991.991,0,0,1-.945-.43,5.729,5.729,0,0,0-.379-.494.993.993,0,0,1-.171-1.028l.492-1.183-3.856-1.6-.492,1.184a.992.992,0,0,1-.849.6q-.153.012-.308.032c-.1.013-.2.029-.3.047a.994.994,0,0,1-.977-.363Zm2.368,3.718a3.421,3.421,0,1,1-2.952,3.832A3.418,3.418,0,0,1,168.544,94.36Z" transform="translate(-137.408 -90.158)" fill="#ebebeb"/>
      </g>
    </g>
    <g id="Shadow" transform="translate(147.292 215.706)">
      <g id="Group_107" data-name="Group 107" transform="translate(0 0)">
        <ellipse id="Ellipse_2" data-name="Ellipse 2" cx="123.727" cy="15.113" rx="123.727" ry="15.113" fill="#ebebeb"/>
      </g>
    </g>
    <g id="Folder" transform="translate(185.721 101.444)">
      <g id="Group_193" data-name="Group 193" transform="translate(0)">
        <g id="Group_178" data-name="Group 178" transform="translate(21.383)">
          <g id="Group_176" data-name="Group 176">
            <path id="Path_213" data-name="Path 213" d="M418.19,302.38H271.638L292.829,182.2H439.381Z" transform="translate(-271.638 -169.754)" fill="#d5d5d5"/>
            <path id="Path_214" data-name="Path 214" d="M365.851,156.325H317.888l-2.194,12.446h51.329Z" transform="translate(-294.503 -156.325)" fill="#d5d5d5"/>
          </g>
          <g id="Group_177" data-name="Group 177" opacity="0.1">
            <path id="Path_215" data-name="Path 215" d="M418.19,302.38H271.638L292.829,182.2H439.381Z" transform="translate(-271.638 -169.754)"/>
            <path id="Path_216" data-name="Path 216" d="M365.851,156.325H317.888l-2.194,12.446h51.329Z" transform="translate(-294.503 -156.325)"/>
          </g>
        </g>
        <g id="Group_191" data-name="Group 191" transform="translate(27.007 0.891)">
          <g id="Group_179" data-name="Group 179" transform="translate(12.346)">
            <path id="Path_217" data-name="Path 217" d="M309.237,162.364a8.245,8.245,0,0,1-.24-2.093,8.115,8.115,0,0,1,.24-2.093,8.159,8.159,0,0,1,.241,2.093A8.242,8.242,0,0,1,309.237,162.364Z" transform="translate(-308.997 -158.178)" fill="#263238"/>
          </g>
          <g id="Group_180" data-name="Group 180" transform="translate(6.231 1.794)">
            <path id="Path_218" data-name="Path 218" d="M298.378,165.532a8.224,8.224,0,0,1-1.254-1.692,8.135,8.135,0,0,1-.838-1.933,8.129,8.129,0,0,1,1.254,1.692A8.211,8.211,0,0,1,298.378,165.532Z" transform="translate(-296.285 -161.907)" fill="#263238"/>
          </g>
          <g id="Group_181" data-name="Group 181" transform="translate(1.624 6.524)">
            <path id="Path_219" data-name="Path 219" d="M290.333,173.834A8.232,8.232,0,0,1,288.4,173a8.137,8.137,0,0,1-1.692-1.254,8.136,8.136,0,0,1,1.933.838A8.239,8.239,0,0,1,290.333,173.834Z" transform="translate(-286.708 -171.741)" fill="#263238"/>
          </g>
          <g id="Group_182" data-name="Group 182" transform="translate(0 12.684)">
            <path id="Path_220" data-name="Path 220" d="M287.517,184.788a8.245,8.245,0,0,1-2.093.241,8.139,8.139,0,0,1-2.093-.241,8.159,8.159,0,0,1,2.093-.241A8.247,8.247,0,0,1,287.517,184.788Z" transform="translate(-283.331 -184.547)" fill="#263238"/>
          </g>
          <g id="Group_183" data-name="Group 183" transform="translate(1.793 17.186)">
            <path id="Path_221" data-name="Path 221" d="M290.684,193.908a8.223,8.223,0,0,1-1.692,1.254,8.136,8.136,0,0,1-1.933.838,9.234,9.234,0,0,1,3.625-2.093Z" transform="translate(-287.059 -193.908)" fill="#263238"/>
          </g>
          <g id="Group_184" data-name="Group 184" transform="translate(6.524 20.261)">
            <path id="Path_222" data-name="Path 222" d="M298.987,200.3a8.232,8.232,0,0,1-.838,1.933,8.138,8.138,0,0,1-1.254,1.692,8.134,8.134,0,0,1,.838-1.933A8.224,8.224,0,0,1,298.987,200.3Z" transform="translate(-296.894 -200.3)" fill="#263238"/>
          </g>
          <g id="Group_185" data-name="Group 185" transform="translate(12.683 21.324)">
            <path id="Path_223" data-name="Path 223" d="M309.94,202.511a8.247,8.247,0,0,1,.24,2.093,8.137,8.137,0,0,1-.24,2.093,8.138,8.138,0,0,1-.241-2.093A8.247,8.247,0,0,1,309.94,202.511Z" transform="translate(-309.699 -202.511)" fill="#263238"/>
          </g>
          <g id="Group_186" data-name="Group 186" transform="translate(17.186 20.092)">
            <path id="Path_224" data-name="Path 224" d="M319.06,199.949a8.24,8.24,0,0,1,1.254,1.692,8.134,8.134,0,0,1,.838,1.933,8.146,8.146,0,0,1-1.254-1.692A8.238,8.238,0,0,1,319.06,199.949Z" transform="translate(-319.06 -199.949)" fill="#263238"/>
          </g>
          <g id="Group_187" data-name="Group 187" transform="translate(20.26 16.893)">
            <path id="Path_225" data-name="Path 225" d="M325.452,193.3a8.231,8.231,0,0,1,1.933.838,8.138,8.138,0,0,1,1.692,1.254,8.135,8.135,0,0,1-1.933-.838A8.224,8.224,0,0,1,325.452,193.3Z" transform="translate(-325.452 -193.299)" fill="#263238"/>
          </g>
          <g id="Group_188" data-name="Group 188" transform="translate(21.324 12.345)">
            <path id="Path_226" data-name="Path 226" d="M327.664,184.085a8.245,8.245,0,0,1,2.093-.241,8.137,8.137,0,0,1,2.093.241,9.226,9.226,0,0,1-4.186,0Z" transform="translate(-327.664 -183.844)" fill="#263238"/>
          </g>
          <g id="Group_189" data-name="Group 189" transform="translate(20.092 6.231)">
            <path id="Path_227" data-name="Path 227" d="M325.1,173.226a9.234,9.234,0,0,1,3.625-2.093,9.234,9.234,0,0,1-3.625,2.093Z" transform="translate(-325.101 -171.133)" fill="#263238"/>
          </g>
          <g id="Group_190" data-name="Group 190" transform="translate(16.893 1.625)">
            <path id="Path_228" data-name="Path 228" d="M318.452,165.181a8.232,8.232,0,0,1,.838-1.933,8.138,8.138,0,0,1,1.254-1.692,8.134,8.134,0,0,1-.838,1.933A8.258,8.258,0,0,1,318.452,165.181Z" transform="translate(-318.452 -161.556)" fill="#263238"/>
          </g>
        </g>
        <path id="Path_229" data-name="Path 229" d="M394.9,307.087H248.036L227.184,191.27H374.052Z" transform="translate(-227.184 -174.461)" fill="#d5d5d5"/>
        <g id="Group_192" data-name="Group 192" transform="translate(44.788 75.4)">
          <circle id="Ellipse_3" data-name="Ellipse 3" cx="6.104" cy="6.104" r="6.104" fill="#263238"/>
          <circle id="Ellipse_4" data-name="Ellipse 4" cx="6.104" cy="6.104" r="6.104" transform="translate(48.257)" fill="#263238"/>
          <path id="Path_230" data-name="Path 230" d="M381.214,331.89l-.335-.639c-.031-.058-3.184-5.887-9.529-5.887-5.787,0-7.2,5.488-7.255,5.722l-.171.7-1.4-.338.168-.7c.016-.068,1.72-6.826,8.658-6.826,7.233,0,10.665,6.388,10.807,6.66l.335.639Z" transform="translate(-342.213 -318.706)" fill="#263238"/>
        </g>
      </g>
    </g>
    <g id="Fly" transform="translate(343.694 66.544)">
      <g id="Group_201" data-name="Group 201" transform="translate(0 0)">
        <g id="Group_195" data-name="Group 195" transform="translate(0 6.694)">
          <g id="Group_194" data-name="Group 194">
            <path id="Path_231" data-name="Path 231" d="M555.607,324.076q.47-.1.937-.22" transform="translate(-555.607 -215.067)" fill="none" stroke="#263238" stroke-miterlimit="10" stroke-width="1"/>
            <path id="Path_232" data-name="Path 232" d="M560.267,206.44c7.357-2.484,13.519-8.272,14.1-15.034,1.278-14.911-16.882-23.148-15.006-40.379,1.789-16.436,19.03-17.609,25.941-15.337,7.633,2.509,5.018,9.846-1.893,8.9-11.982-1.641-19.513-14.667-13.823-29.444,4.252-11.04,14.85-15.2,19.156-16.473" transform="translate(-557.484 -98.199)" fill="none" stroke="#263238" stroke-miterlimit="10" stroke-width="1" stroke-dasharray="4.004 4.004"/>
            <path id="Path_233" data-name="Path 233" d="M622.515,97.9c.6-.153.935-.217.935-.217" transform="translate(-590.332 -97.687)" fill="none" stroke="#263238" stroke-miterlimit="10" stroke-width="1"/>
          </g>
        </g>
        <g id="Group_200" data-name="Group 200" transform="translate(28.438)">
          <path id="Path_234" data-name="Path 234" d="M631.638,89.809c-1.228-3.8-9.443-2.436-7.839,2.531S632.865,93.61,631.638,89.809Z" transform="translate(-619.329 -85.771)" fill="#263238"/>
          <g id="Group_197" data-name="Group 197">
            <path id="Path_235" data-name="Path 235" d="M614.731,86.274c.061-1.667,2.381-2.95,5.66-2.358a18.382,18.382,0,0,1,6.367,2.8,18.321,18.321,0,0,1-6.555,2.333C616.888,89.4,614.669,87.95,614.731,86.274Z" transform="translate(-614.729 -83.769)" fill="#ebebeb"/>
            <g id="Group_196" data-name="Group 196" transform="translate(1.829 1.029)">
              <path id="Path_236" data-name="Path 236" d="M628.73,89.49c-1.7.012-3.4-.045-5.1-.1-1.7-.073-3.4-.14-5.1-.278,1.7-.012,3.4.045,5.1.1C625.334,89.285,627.033,89.353,628.73,89.49Z" transform="translate(-618.532 -87.572)" fill="#263238"/>
              <path id="Path_237" data-name="Path 237" d="M621.583,85.908a14.3,14.3,0,0,1,2.718,1.7,14.37,14.37,0,0,1-2.718-1.7Z" transform="translate(-620.115 -85.908)" fill="#263238"/>
              <path id="Path_238" data-name="Path 238" d="M627.8,89.57a15.727,15.727,0,0,1-2.828,1.82,15.728,15.728,0,0,1,2.828-1.82Z" transform="translate(-621.873 -87.809)" fill="#263238"/>
              <path id="Path_239" data-name="Path 239" d="M631.877,87.618a3.59,3.59,0,0,1,1.243,1,3.349,3.349,0,0,1-.678-.431A3.434,3.434,0,0,1,631.877,87.618Z" transform="translate(-625.458 -86.795)" fill="#263238"/>
            </g>
          </g>
          <g id="Group_199" data-name="Group 199" transform="translate(2.723 5.009)">
            <path id="Path_240" data-name="Path 240" d="M620.793,101.575c1.025,1.317,3.657,1,5.97-1.4a18.384,18.384,0,0,0,3.527-5.995,18.317,18.317,0,0,0-6.682,1.941C620.716,97.778,619.763,100.252,620.793,101.575Z" transform="translate(-620.391 -94.183)" fill="#ebebeb"/>
            <g id="Group_198" data-name="Group 198" transform="translate(1.845)">
              <path id="Path_241" data-name="Path 241" d="M632.281,94.182c-1.388.986-2.733,2.026-4.082,3.063-1.336,1.053-2.675,2.1-3.971,3.2,1.388-.986,2.734-2.026,4.082-3.063C629.646,96.334,630.985,95.285,632.281,94.182Z" transform="translate(-624.228 -94.182)" fill="#263238"/>
              <path id="Path_242" data-name="Path 242" d="M628.579,104.828a13.589,13.589,0,0,0,.688-1.451,13.382,13.382,0,0,0,.521-1.519,14.3,14.3,0,0,0-1.21,2.969Z" transform="translate(-626.486 -98.166)" fill="#263238"/>
              <path id="Path_243" data-name="Path 243" d="M630.33,99.617a14.9,14.9,0,0,0-1.684,0,14.678,14.678,0,0,0-1.674.179,14.678,14.678,0,0,0,1.684,0A15.02,15.02,0,0,0,630.33,99.617Z" transform="translate(-625.652 -96.989)" fill="#263238"/>
              <path id="Path_244" data-name="Path 244" d="M635.93,98.963a3.432,3.432,0,0,0,.3-.747,3.381,3.381,0,0,0,.124-.794,3.363,3.363,0,0,0-.3.747A3.41,3.41,0,0,0,635.93,98.963Z" transform="translate(-630.301 -95.864)" fill="#263238"/>
            </g>
          </g>
          <path id="Path_245" data-name="Path 245" d="M638.286,89.128a1.441,1.441,0,1,1,.928-1.814A1.441,1.441,0,0,1,638.286,89.128Z" transform="translate(-625.977 -85.091)" fill="#455a64"/>
          <path id="Path_246" data-name="Path 246" d="M640.127,94.832a1.441,1.441,0,1,1,.929-1.814A1.441,1.441,0,0,1,640.127,94.832Z" transform="translate(-626.932 -88.051)" fill="#455a64"/>
        </g>
      </g>
    </g>
    <g id="Speech_Bubble" transform="translate(214.186 50.579)">
      <g id="Group_204" data-name="Group 204" transform="translate(0 0)">
        <g id="Group_202" data-name="Group 202">
          <path id="Path_247" data-name="Path 247" d="M286.231,81.037A11.985,11.985,0,0,1,266.2,88.62l-6,.88,3-5.185a11.989,11.989,0,1,1,23.027-3.278Z" transform="translate(-259.799 -67.693)" fill="#fff"/>
          <path id="Path_248" data-name="Path 248" d="M285.8,80.923A12.073,12.073,0,0,1,283.376,87a10.839,10.839,0,0,1-2.352,2.322,11.841,11.841,0,0,1-2.892,1.61,11.961,11.961,0,0,1-3.228.77,11.817,11.817,0,0,1-1.666.032,10.5,10.5,0,0,1-1.659-.173,12.1,12.1,0,0,1-5.931-2.928l.142.044-5.992.92-.435.067.22-.383,2.983-5.2-.014.2a12.124,12.124,0,0,1,.738-10.686,12.264,12.264,0,0,1,3.755-4,12.2,12.2,0,0,1,10.538-1.419,12.248,12.248,0,0,1,4.623,2.835A12.063,12.063,0,0,1,285.8,80.923Zm0,0a11.86,11.86,0,0,0-13.6-12.975,11.787,11.787,0,0,0-4.951,1.956,12.346,12.346,0,0,0-3.587,3.912,11.832,11.832,0,0,0-1.521,5.073,11.98,11.98,0,0,0,.844,5.223l.043.107-.057.1-3.018,5.175-.215-.316,6-.841.083-.012.059.055a11.808,11.808,0,0,0,5.741,2.957,10.267,10.267,0,0,0,1.626.2,11.6,11.6,0,0,0,1.641,0,11.81,11.81,0,0,0,3.2-.705,11.161,11.161,0,0,0,2.892-1.558,10.779,10.779,0,0,0,2.356-2.295A12.056,12.056,0,0,0,285.8,80.923Z" transform="translate(-259.364 -67.579)" fill="#263238"/>
        </g>
        <g id="Group_203" data-name="Group 203" transform="translate(8.646 5.3)">
          <path id="Path_249" data-name="Path 249" d="M277.338,90.985a1.166,1.166,0,0,1,1.173-1.233,1.234,1.234,0,0,1,0,2.465A1.165,1.165,0,0,1,277.338,90.985Zm.5-2.843-.279-9.543h1.909l-.279,9.543Z" transform="translate(-277.338 -78.599)" fill="#ebebeb"/>
          <path id="Path_250" data-name="Path 250" d="M286.845,90.985a1.166,1.166,0,0,1,1.173-1.233,1.234,1.234,0,0,1,0,2.465A1.165,1.165,0,0,1,286.845,90.985Zm.5-2.843-.278-9.543h1.909l-.278,9.543Z" transform="translate(-282.272 -78.599)" fill="#ebebeb"/>
          <path id="Path_251" data-name="Path 251" d="M296.352,90.985a1.166,1.166,0,0,1,1.173-1.233,1.234,1.234,0,0,1,0,2.465A1.165,1.165,0,0,1,296.352,90.985Zm.5-2.843-.279-9.543h1.909l-.278,9.543Z" transform="translate(-287.206 -78.599)" fill="#ebebeb"/>
        </g>
      </g>
    </g>
  </g>
</svg>
